<?xml version="1.0" encoding="UTF-8" standalone="no"?>
<!-- Generator: Adobe Illustrator 19.1.0, SVG Export Plug-In . SVG Version: 6.00 Build 0)  -->

<svg
   version="1.1"
   id="Layer_1"
   x="0px"
   y="0px"
   viewBox="0 0 24 24"
   xml:space="preserve"
   sodipodi:docname="orcid.svg"
   width="24"
   height="24"
   inkscape:version="1.3 (1:1.3+202307231459+0e150ed6c4)"
   xmlns:inkscape="http://www.inkscape.org/namespaces/inkscape"
   xmlns:sodipodi="http://sodipodi.sourceforge.net/DTD/sodipodi-0.dtd"
   xmlns="http://www.w3.org/2000/svg"
   xmlns:svg="http://www.w3.org/2000/svg"><defs
   id="defs4" /><sodipodi:namedview
   id="namedview4"
   pagecolor="#ffffff"
   bordercolor="#999999"
   borderopacity="1"
   inkscape:showpageshadow="0"
   inkscape:pageopacity="0"
   inkscape:pagecheckerboard="0"
   inkscape:deskcolor="#d1d1d1"
   inkscape:zoom="4.5742188"
   inkscape:cx="11.805295"
   inkscape:cy="11.914603"
   inkscape:window-width="3440"
   inkscape:window-height="1371"
   inkscape:window-x="0"
   inkscape:window-y="0"
   inkscape:window-maximized="1"
   inkscape:current-layer="Layer_1" />&#10;<style
   type="text/css"
   id="style1">&#10;	.st0{fill:#A6CE39;}&#10;	.st1{fill:#FFFFFF;}&#10;</style>&#10;<path
   class="st0"
   d="M 24,12 C 24,18.62812 18.62812,24 12,24 5.37188,24 0,18.62812 0,12 0,5.37188 5.37188,0 12,0 18.62812,0 24,5.37188 24,12 Z"
   id="path1"
   style="stroke-width:0.09375" />&#10;<g
   id="g4"
   transform="scale(0.09375)">&#10;	<path
   class="st1"
   d="M 86.3,186.2 H 70.9 V 79.1 h 15.4 v 48.4 z"
   id="path2" />&#10;	<path
   class="st1"
   d="m 108.9,79.1 h 41.6 c 39.6,0 57,28.3 57,53.6 0,27.5 -21.5,53.6 -56.8,53.6 h -41.8 z m 15.4,93.3 h 24.5 c 34.9,0 42.9,-26.5 42.9,-39.7 C 191.7,111.2 178,93 148,93 h -23.7 z"
   id="path3" />&#10;	<path
   class="st1"
   d="m 88.7,56.8 c 0,5.5 -4.5,10.1 -10.1,10.1 -5.6,0 -10.1,-4.6 -10.1,-10.1 0,-5.6 4.5,-10.1 10.1,-10.1 5.6,0 10.1,4.6 10.1,10.1 z"
   id="path4" />&#10;</g>&#10;</svg>
